<?xml version="1.0" encoding="UTF-8" standalone="no"?>
<!DOCTYPE svg PUBLIC "-//W3C//DTD SVG 1.1//EN" "http://www.w3.org/Graphics/SVG/1.1/DTD/svg11.dtd">
<svg width="100%" height="100%" viewBox="0 0 352 49" version="1.1" xmlns="http://www.w3.org/2000/svg" xmlns:xlink="http://www.w3.org/1999/xlink" xml:space="preserve" xmlns:serif="http://www.serif.com/" style="fill-rule:evenodd;clip-rule:evenodd;stroke-linejoin:round;stroke-miterlimit:2;">
    <g transform="matrix(1,0,0,1,-529.683,-92.8739)">
        <g>
            <g transform="matrix(1,0,0,1,-9.05018,-80.4945)">
                <text x="662.793px" y="214.48px" style="font-family:'Poppins-BoldItalic', 'Poppins';font-weight:700;font-style:italic;font-size:47.959px;fill:white;">FITTHEAD</text>
            </g>
            <g transform="matrix(1,0,0,1,0,-78.7756)">
                <g transform="matrix(1,0,0,1,0,-0.105152)">
                    <g transform="matrix(6.38145e-17,-1.04217,1.07619,6.58977e-17,389.589,867.414)">
                        <path d="M667.51,155.135C667.51,153.039 665.756,151.34 663.592,151.34L624.792,151.34C622.628,151.34 620.873,153.039 620.873,155.135L620.873,155.138C620.873,157.233 622.628,158.932 624.792,158.932L663.592,158.932C665.756,158.932 667.51,157.233 667.51,155.138L667.51,155.135Z" style="fill:white;"/>
                    </g>
                    <g transform="matrix(4.62518e-17,-0.755349,1.07619,6.58977e-17,378.2,682.646)">
                        <path d="M667.51,155.135C667.51,154.129 666.941,153.163 665.927,152.452C664.913,151.74 663.538,151.34 662.104,151.34C653.128,151.34 635.255,151.34 626.28,151.34C624.846,151.34 623.471,151.74 622.457,152.452C621.443,153.163 620.873,154.129 620.873,155.135C620.873,155.136 620.873,155.137 620.873,155.138C620.873,156.144 621.443,157.109 622.457,157.821C623.471,158.533 624.846,158.932 626.28,158.932C635.255,158.932 653.128,158.932 662.104,158.932C663.538,158.932 664.913,158.533 665.927,157.821C666.941,157.109 667.51,156.144 667.51,155.138C667.51,155.137 667.51,155.136 667.51,155.135Z" style="fill:white;"/>
                    </g>
                    <g transform="matrix(3.35226e-17,-0.547465,1.07619,6.58977e-17,366.812,548.729)">
                        <path d="M667.51,155.135C667.51,153.039 664.171,151.34 660.051,151.34C651.346,151.34 637.038,151.34 628.333,151.34C624.213,151.34 620.873,153.039 620.873,155.135C620.873,155.136 620.873,155.137 620.873,155.138C620.873,157.233 624.213,158.932 628.333,158.932C637.038,158.932 651.346,158.932 660.051,158.932C664.171,158.932 667.51,157.233 667.51,155.138C667.51,155.137 667.51,155.136 667.51,155.135Z" style="fill:white;"/>
                    </g>
                </g>
                <g transform="matrix(1,0,0,1,1,0.105152)">
                    <g transform="matrix(-0.507443,-0.292972,0.538095,-0.932008,819.657,544.592)">
                        <path d="M667.51,155.135C667.51,153.039 664.39,151.34 660.541,151.34C651.73,151.34 636.653,151.34 627.843,151.34C623.994,151.34 620.873,153.039 620.873,155.135C620.873,155.136 620.873,155.137 620.873,155.138C620.873,157.233 623.994,158.932 627.843,158.932C636.653,158.932 651.73,158.932 660.541,158.932C664.39,158.932 667.51,157.233 667.51,155.138C667.51,155.137 667.51,155.136 667.51,155.135Z" style="fill:white;"/>
                    </g>
                    <g transform="matrix(-0.507443,0.292972,0.538095,0.932008,819.657,-152.899)">
                        <path d="M667.51,155.135C667.51,153.039 664.39,151.34 660.541,151.34C651.73,151.34 636.653,151.34 627.843,151.34C623.994,151.34 620.873,153.039 620.873,155.135C620.873,155.136 620.873,155.137 620.873,155.138C620.873,157.233 623.994,158.932 627.843,158.932C636.653,158.932 651.73,158.932 660.541,158.932C664.39,158.932 667.51,157.233 667.51,155.138C667.51,155.137 667.51,155.136 667.51,155.135Z" style="fill:white;"/>
                    </g>
                    <g transform="matrix(0.507443,-0.292972,-0.538095,-0.932008,350.097,544.592)">
                        <path d="M667.51,155.135C667.51,153.039 664.39,151.34 660.541,151.34C651.73,151.34 636.653,151.34 627.843,151.34C623.994,151.34 620.873,153.039 620.873,155.135C620.873,155.136 620.873,155.137 620.873,155.138C620.873,157.233 623.994,158.932 627.843,158.932C636.653,158.932 651.73,158.932 660.541,158.932C664.39,158.932 667.51,157.233 667.51,155.138C667.51,155.137 667.51,155.136 667.51,155.135Z" style="fill:white;"/>
                    </g>
                    <g transform="matrix(0.507443,0.292972,-0.538095,0.932008,350.097,-152.899)">
                        <path d="M667.51,155.135C667.51,153.039 664.39,151.34 660.541,151.34C651.73,151.34 636.653,151.34 627.843,151.34C623.994,151.34 620.873,153.039 620.873,155.135C620.873,155.136 620.873,155.137 620.873,155.138C620.873,157.233 623.994,158.932 627.843,158.932C636.653,158.932 651.73,158.932 660.541,158.932C664.39,158.932 667.51,157.233 667.51,155.138C667.51,155.137 667.51,155.136 667.51,155.135Z" style="fill:white;"/>
                    </g>
                </g>
                <g transform="matrix(1,0,0,1,-1.13527,0.105152)">
                    <g transform="matrix(6.38145e-17,-1.04217,-1.07619,-6.58977e-17,783.313,867.204)">
                        <path d="M667.51,155.135C667.51,153.039 665.756,151.34 663.592,151.34L624.792,151.34C622.628,151.34 620.873,153.039 620.873,155.135L620.873,155.138C620.873,157.233 622.628,158.932 624.792,158.932L663.592,158.932C665.756,158.932 667.51,157.233 667.51,155.138L667.51,155.135Z" style="fill:white;"/>
                    </g>
                    <g transform="matrix(4.62518e-17,-0.755349,-1.07619,-6.58977e-17,794.701,682.436)">
                        <path d="M667.51,155.135C667.51,154.129 666.941,153.163 665.927,152.452C664.913,151.74 663.538,151.34 662.104,151.34C653.128,151.34 635.255,151.34 626.28,151.34C624.846,151.34 623.471,151.74 622.457,152.452C621.443,153.163 620.873,154.129 620.873,155.135C620.873,155.136 620.873,155.137 620.873,155.138C620.873,156.144 621.443,157.109 622.457,157.821C623.471,158.533 624.846,158.932 626.28,158.932C635.255,158.932 653.128,158.932 662.104,158.932C663.538,158.932 664.913,158.533 665.927,157.821C666.941,157.109 667.51,156.144 667.51,155.138C667.51,155.137 667.51,155.136 667.51,155.135Z" style="fill:white;"/>
                    </g>
                    <g transform="matrix(3.35226e-17,-0.547465,-1.07619,-6.58977e-17,806.089,548.519)">
                        <path d="M667.51,155.135C667.51,153.039 664.171,151.34 660.051,151.34C651.346,151.34 637.038,151.34 628.333,151.34C624.213,151.34 620.873,153.039 620.873,155.135C620.873,155.136 620.873,155.137 620.873,155.138C620.873,157.233 624.213,158.932 628.333,158.932C637.038,158.932 651.346,158.932 660.051,158.932C664.171,158.932 667.51,157.233 667.51,155.138C667.51,155.137 667.51,155.136 667.51,155.135Z" style="fill:white;"/>
                    </g>
                </g>
            </g>
        </g>
    </g>
</svg>
